<?xml version="1.0" encoding="UTF-8"?>
<svg id="Laag_1" data-name="Laag 1" xmlns="http://www.w3.org/2000/svg" viewBox="0 0 412.93 412.93">
  <defs>
    <style>
      .cls-1 {
        fill: #263239;
      }

      .cls-1, .cls-2, .cls-3, .cls-4 {
        stroke-width: 0px;
      }

      .cls-2 {
        fill: #010101;
        opacity: .1;
      }

      .cls-3 {
        fill: #fdc629;
      }

      .cls-4 {
        fill: #fff;
      }
    </style>
  </defs>
  <circle class="cls-3" cx="206.46" cy="206.46" r="206.46"/>
  <circle class="cls-2" cx="200.28" cy="204.92" r="194.29" transform="translate(-86.24 201.64) rotate(-45)"/>
  <circle class="cls-4" cx="206.46" cy="206.46" r="182.1" transform="translate(-85.52 206.46) rotate(-45)"/>
  <g>
    <g>
      <path class="cls-1" d="M201.21,41.08v16.55c0,.87-.73,1.54-1.57,1.54s-1.54-.67-1.54-1.54v-13.8l-1.12.65c-.25.17-.53.22-.79.22-.53,0-1.04-.28-1.32-.79-.48-.7-.22-1.68.5-2.1l3.45-2.05s.08-.03.11-.06c.06,0,.08-.06.14-.08.06,0,.11-.03.17-.03.03-.03.08-.03.11-.03.06-.03.14-.03.2-.03h.31s.08.03.11.03c.08,0,.11.03.17.06.03,0,.08,0,.11.03.08.06.11.08.17.08.03.03.06.06.11.08.03.03.08.06.11.08.06.03.08.08.11.11.03.03.06.06.08.11.03.03.08.08.11.11l.03.06s.03.06.03.08c.03.06.06.08.06.14.03.06.03.11.06.14,0,.06.03.11.03.14,0,.08,0,.14.06.2v.08Z"/>
      <path class="cls-1" d="M217.44,57.62c0,.87-.67,1.54-1.54,1.54h-9.98c-.42,0-.87-.17-1.15-.5-.59-.65-.53-1.6.08-2.19l8.3-7.52c.81-.73,1.18-1.68,1.18-2.69,0-.9-.31-1.74-.93-2.44-.73-.81-1.71-1.18-2.69-1.18-.87,0-1.74.31-2.44.93l-.87.78c-.65.59-1.6.53-2.19-.11-.56-.65-.53-1.6.11-2.19l.87-.78c1.26-1.18,2.92-1.74,4.52-1.74,1.82,0,3.67.76,4.99,2.22,1.18,1.26,1.74,2.92,1.74,4.52,0,1.82-.76,3.67-2.21,4.99l-5.3,4.8h5.97c.87,0,1.54.7,1.54,1.57Z"/>
    </g>
    <path class="cls-1" d="M286.12,61.73v16.55c0,.87-.73,1.54-1.57,1.54s-1.54-.67-1.54-1.54v-13.8l-1.12.65c-.25.17-.53.22-.79.22-.53,0-1.04-.28-1.32-.79-.48-.7-.22-1.68.5-2.1l3.45-2.05s.09-.03.11-.06c.06,0,.08-.06.14-.08.06,0,.11-.03.17-.03.03-.03.08-.03.11-.03.06-.03.14-.03.2-.03h.31s.08.03.11.03c.09,0,.11.03.17.06.03,0,.08,0,.11.03.09.06.11.08.17.08.03.03.06.06.11.08.03.03.08.06.11.08.06.03.08.08.11.11.03.03.06.06.09.11.03.03.08.08.11.11l.03.06s.03.06.03.08c.03.06.06.08.06.14.03.06.03.11.06.14,0,.06.03.11.03.14,0,.08,0,.14.06.2v.08Z"/>
    <g>
      <path class="cls-1" d="M123.69,61.73v16.55c0,.87-.73,1.54-1.57,1.54s-1.54-.67-1.54-1.54v-13.8l-1.12.65c-.25.17-.53.22-.79.22-.53,0-1.04-.28-1.32-.79-.48-.7-.22-1.68.5-2.1l3.45-2.05s.08-.03.11-.06c.06,0,.08-.06.14-.08.06,0,.11-.03.17-.03.03-.03.08-.03.11-.03.06-.03.14-.03.2-.03h.31s.08.03.11.03c.08,0,.11.03.17.06.03,0,.08,0,.11.03.08.06.11.08.17.08.03.03.06.06.11.08.03.03.08.06.11.08.06.03.08.08.11.11.03.03.06.06.08.11.03.03.08.08.11.11l.03.06s.03.06.03.08c.03.06.06.08.06.14.03.06.03.11.06.14,0,.06.03.11.03.14,0,.08,0,.14.06.2v.08Z"/>
      <path class="cls-1" d="M133.08,61.73v16.55c0,.87-.73,1.54-1.57,1.54s-1.54-.67-1.54-1.54v-13.8l-1.12.65c-.25.17-.53.22-.79.22-.53,0-1.04-.28-1.32-.79-.48-.7-.22-1.68.5-2.1l3.45-2.05s.08-.03.11-.06c.06,0,.08-.06.14-.08.06,0,.11-.03.17-.03.03-.03.08-.03.11-.03.06-.03.14-.03.2-.03h.31s.08.03.11.03c.08,0,.11.03.17.06.03,0,.08,0,.11.03.08.06.11.08.17.08.03.03.06.06.11.08.03.03.08.06.11.08.06.03.08.08.11.11.03.03.06.06.08.11.03.03.08.08.11.11l.03.06s.03.06.03.08c.03.06.06.08.06.14.03.06.03.11.06.14,0,.06.03.11.03.14,0,.08,0,.14.06.2v.08Z"/>
    </g>
    <path class="cls-1" d="M349.23,136.66c0,.87-.67,1.54-1.54,1.54h-9.98c-.42,0-.87-.17-1.15-.5-.59-.65-.53-1.6.09-2.19l8.3-7.52c.81-.73,1.18-1.68,1.18-2.69,0-.9-.31-1.74-.93-2.44-.73-.81-1.71-1.18-2.69-1.18-.87,0-1.74.31-2.44.93l-.87.79c-.65.59-1.6.53-2.19-.11-.56-.65-.53-1.6.11-2.19l.87-.78c1.26-1.18,2.92-1.74,4.52-1.74,1.82,0,3.67.76,4.99,2.22,1.18,1.26,1.74,2.92,1.74,4.52,0,1.82-.76,3.67-2.22,4.99l-5.3,4.8h5.97c.87,0,1.54.7,1.54,1.57Z"/>
    <g>
      <path class="cls-1" d="M64.59,120.11v16.55c0,.87-.73,1.54-1.57,1.54s-1.54-.67-1.54-1.54v-13.8l-1.12.65c-.25.17-.53.22-.79.22-.53,0-1.04-.28-1.32-.79-.48-.7-.22-1.68.5-2.1l3.45-2.05s.08-.03.11-.06c.06,0,.08-.06.14-.08.06,0,.11-.03.17-.03.03-.03.08-.03.11-.03.06-.03.14-.03.2-.03h.31s.08.03.11.03c.08,0,.11.03.17.06.03,0,.08,0,.11.03.08.06.11.08.17.08.03.03.06.06.11.08.03.03.08.06.11.08.06.03.08.08.11.11.03.03.06.06.08.11.03.03.08.08.11.11l.03.06s.03.06.03.08c.03.06.06.08.06.14.03.06.03.11.06.14,0,.06.03.11.03.14,0,.08,0,.14.06.2v.08Z"/>
      <path class="cls-1" d="M68.15,128.38c.03-2.58.67-4.91,1.91-6.7,1.18-1.79,3-3.11,5.22-3.11s4.01,1.32,5.19,3.11c1.21,1.79,1.88,4.12,1.88,6.7s-.67,4.91-1.88,6.7c-1.18,1.77-3.03,3.11-5.19,3.11s-4.04-1.35-5.22-3.11c-1.23-1.79-1.88-4.15-1.91-6.7ZM79.23,128.38c0-2.02-.56-3.79-1.35-4.99-.81-1.18-1.74-1.74-2.61-1.71-.87-.03-1.82.53-2.66,1.71-.79,1.21-1.35,2.97-1.35,4.99s.56,3.79,1.35,4.96c.84,1.21,1.79,1.74,2.66,1.74s1.79-.53,2.61-1.74c.79-1.18,1.35-2.97,1.35-4.96Z"/>
    </g>
    <path class="cls-1" d="M42.92,203.18c0-3.76,3.06-6.79,6.81-6.79,3.53,0,6.42,2.66,6.76,6.09t.03.06c.03.53.06,1.07.06,1.6,0,1.88-.28,3.9-.98,5.75-.7,1.85-1.85,3.62-3.62,4.8-1.18.78-2.61,1.26-4.21,1.32-.87.03-1.57-.62-1.63-1.49-.03-.84.65-1.54,1.51-1.63,1.07-.03,1.91-.34,2.64-.79.7-.48,1.29-1.12,1.77-1.96.14-.22.25-.48.36-.73-.81.36-1.74.56-2.69.56-3.76,0-6.81-3.03-6.81-6.79ZM46.04,203.18c0,2.02,1.65,3.7,3.7,3.7s3.67-1.68,3.67-3.7-1.63-3.67-3.67-3.67-3.7,1.63-3.7,3.67Z"/>
    <path class="cls-1" d="M367.2,204.1c1.38,1.35,2.05,3.14,2.05,4.91s-.67,3.56-2.05,4.94c-1.34,1.35-3.14,2.05-4.93,2.05s-3.56-.7-4.91-2.05c-.62-.62-.62-1.63,0-2.24.62-.62,1.63-.62,2.24,0,.73.73,1.68,1.09,2.66,1.09s1.94-.36,2.69-1.09c.76-.76,1.12-1.71,1.12-2.69s-.36-1.94-1.12-2.66c-.73-.76-1.68-1.09-2.66-1.12-.45.03-.87-.17-1.15-.5t-.03-.03c-.65-.62-.65-1.6-.06-2.24l2.86-2.92h-4.54c-.87,0-1.57-.7-1.57-1.6s.7-1.57,1.57-1.57h8.27c.9,0,1.6.7,1.6,1.57,0,.28-.08.53-.2.76-.08.14-.17.28-.28.39l-3.53,3.65c.73.34,1.4.79,1.96,1.37Z"/>
    <path class="cls-1" d="M348.69,288.91c0,.87-.7,1.54-1.57,1.54h-.28v2.13c0,.87-.67,1.54-1.54,1.54s-1.54-.67-1.54-1.54v-2.13h-8.83c-.34,0-.67-.08-.95-.34-.7-.53-.79-1.49-.25-2.16l10.38-12.9s.03-.03.06-.06c.03-.03.06-.06.08-.11.08-.03.11-.06.14-.08.03-.03.08-.06.11-.08.06-.03.08-.06.17-.06.03-.06.06-.08.11-.08.03-.03.08-.03.17-.06.03,0,.08,0,.11-.03h.48c.06.03.08.03.14.03.03.03.11.03.17.06.03,0,.08.03.11.03.06.06.11.08.14.11.06.03.08.06.14.08,0,0,.03,0,.03.03.03,0,.09.03.09.06.05.06.08.08.11.11.03.03.06.08.08.11.03.03.06.06.11.14,0,.03.03.08.06.11.03.06.03.08.05.17,0,.03.03.08.03.11.03.06.03.08.03.17,0,.06.03.08.03.14v11.41h.28c.87,0,1.57.7,1.57,1.54ZM343.76,280.44l-5.58,6.93h5.58v-6.93Z"/>
    <path class="cls-1" d="M77.6,287.45c0,3.67-3,6.67-6.67,6.67s-6.73-3-6.73-6.67c0-2.33,1.18-4.37,3-5.58-.59-.76-.93-1.74-.93-2.78,0-2.53,2.08-4.6,4.65-4.6s4.6,2.07,4.6,4.6c0,1.04-.34,2.02-.93,2.78,1.79,1.21,3,3.25,3,5.58ZM74.54,287.45c0-1.99-1.63-3.65-3.62-3.65s-3.65,1.65-3.67,3.65c.03,1.99,1.65,3.62,3.67,3.62s3.62-1.63,3.62-3.62ZM69.33,279.09c0,.87.7,1.6,1.6,1.6.84,0,1.54-.73,1.54-1.6s-.7-1.54-1.54-1.54c-.9,0-1.6.7-1.6,1.54Z"/>
    <path class="cls-1" d="M288.06,341.27c1.37,1.35,2.05,3.14,2.05,4.94s-.7,3.56-2.05,4.91c-1.35,1.38-3.14,2.05-4.91,2.05h-.06c-1.74,0-3.56-.67-4.88-2.05-.65-.59-.65-1.6,0-2.24.59-.62,1.63-.62,2.24,0,.73.76,1.68,1.12,2.69,1.12.95,0,1.94-.36,2.66-1.12.73-.73,1.12-1.71,1.12-2.66,0-1.01-.36-1.96-1.12-2.69-.73-.76-1.68-1.09-2.66-1.09s-1.96.34-2.69,1.09c-.62.62-1.63.62-2.24,0-.11-.11-.2-.25-.31-.36,0-.06,0-.09-.03-.09,0-.05-.03-.11-.06-.14,0-.08-.03-.14-.03-.2,0-.03-.03-.03-.03-.06-.03-.17-.03-.34,0-.48l.84-7.26c.08-.48.34-.87.7-1.12.06-.03.08-.03.11-.06.03-.03.06-.03.08-.06.23-.11.45-.17.73-.17h8.27c.9,0,1.6.7,1.6,1.6,0,.84-.7,1.57-1.6,1.57h-6.9l-.34,2.78c.62-.17,1.26-.25,1.88-.25,1.77,0,3.56.67,4.91,2.05Z"/>
    <path class="cls-1" d="M134.45,335.66l-7.01,16.57c-.22.59-.78.93-1.43.93-.17,0-.39-.03-.59-.11-.79-.36-1.15-1.26-.84-2.02l6.06-14.39h-7.24c-.84,0-1.54-.73-1.54-1.57s.7-1.54,1.54-1.54h9.62c.08,0,.17,0,.28.03.2.03.39.14.59.22.03.03.06.06.08.08.06.03.08.06.11.11.03.06.08.08.11.11.03.06.06.09.08.11.03.03.06.11.06.14.03.06.06.08.11.14,0,.03.03.11.03.14.03.06.03.08.06.14.03.2.03.42,0,.62-.03.11-.06.2-.08.28Z"/>
    <path class="cls-1" d="M212.97,365.53c0,3.76-3.06,6.79-6.81,6.79-3.53,0-6.42-2.66-6.76-6.09t-.03-.06c-.03-.53-.06-1.06-.06-1.6,0-1.88.28-3.9.98-5.75.7-1.85,1.85-3.62,3.62-4.8,1.18-.79,2.61-1.26,4.21-1.32.87-.03,1.57.62,1.63,1.49.03.84-.65,1.54-1.51,1.63-1.07.03-1.91.34-2.64.79-.7.48-1.29,1.12-1.77,1.96-.14.22-.25.48-.36.73.81-.36,1.74-.56,2.69-.56,3.76,0,6.81,3.03,6.81,6.79ZM209.86,365.53c0-2.02-1.65-3.7-3.7-3.7s-3.67,1.68-3.67,3.7,1.63,3.68,3.67,3.68,3.7-1.63,3.7-3.68Z"/>
  </g>
</svg>