<?xml version="1.0" encoding="UTF-8"?>
<svg xmlns="http://www.w3.org/2000/svg" viewBox="0 0 119.51 149.79">
  <defs>
    <style>
      .cls-1, .cls-2, .cls-3, .cls-4 {
        stroke: #1d1d1b;
        stroke-miterlimit: 10;
      }

      .cls-1, .cls-4 {
        fill: none;
      }

      .cls-2 {
        fill: #fff;
      }

      .cls-2, .cls-3, .cls-4 {
        stroke-width: 2px;
      }

      .cls-3 {
        fill: #ffed00;
      }
    </style>
  </defs>
  <g id="Laag_1" data-name="Laag 1">
    <path class="cls-4" d="M21.08,62.16s-2.1,6.21,1.09,10.29"/>
    <ellipse class="cls-1" cx="22.13" cy="72.4" rx=".41" ry=".47" transform="translate(-37.12 25.27) rotate(-34.5)"/>
    <ellipse class="cls-1" cx="21.08" cy="62.12" rx=".39" ry=".44" transform="translate(-31.48 22.87) rotate(-34.5)"/>
    <path class="cls-4" d="M18.25,61.64s-2.33,7.57,1.71,12.7"/>
    <ellipse class="cls-1" cx="19.91" cy="74.28" rx=".41" ry=".59" transform="translate(-40.44 26.61) rotate(-36.69)"/>
    <ellipse class="cls-1" cx="18.29" cy="61.51" rx=".53" ry=".42" transform="translate(-45.87 62.74) rotate(-74.55)"/>
    <path class="cls-4" d="M18.23,107.2s-2,6.25,1.25,10.27"/>
    <ellipse class="cls-1" cx="19.45" cy="117.42" rx=".41" ry=".47" transform="translate(-64.46 33.01) rotate(-35.42)"/>
    <ellipse class="cls-1" cx="18.23" cy="107.16" rx=".39" ry=".44" transform="translate(-58.74 30.4) rotate(-35.42)"/>
    <path class="cls-4" d="M15.39,106.73s-2.21,7.6,1.91,12.67"/>
    <ellipse class="cls-1" cx="17.25" cy="119.34" rx=".41" ry=".59" transform="translate(-69.25 35.33) rotate(-37.61)"/>
    <ellipse class="cls-1" cx="15.42" cy="106.59" rx=".53" ry=".42" transform="translate(-91.63 94.78) rotate(-75.47)"/>
    <path class="cls-4" d="M88.7,82.63s5.01-4.24,4.39-9.37"/>
    <ellipse class="cls-1" cx="93.09" cy="73.32" rx=".41" ry=".47" transform="translate(-4.15 5.6) rotate(-3.37)"/>
    <ellipse class="cls-1" cx="88.68" cy="82.66" rx=".39" ry=".44" transform="translate(-4.7 5.35) rotate(-3.37)"/>
    <path class="cls-4" d="M90.86,84.54s5.91-5.27,5.1-11.75"/>
    <ellipse class="cls-1" cx="95.97" cy="72.86" rx=".41" ry=".59" transform="translate(-6.6 9.64) rotate(-5.56)"/>
    <ellipse class="cls-1" cx="90.75" cy="84.63" rx=".53" ry=".42" transform="translate(-33.34 85.53) rotate(-43.42)"/>
    <path class="cls-4" d="M107.19,36.45s-4.28-4.97-9.41-4.3"/>
    <ellipse class="cls-1" cx="97.84" cy="32.14" rx=".47" ry=".41" transform="translate(-1.95 6.71) rotate(-3.89)"/>
    <ellipse class="cls-1" cx="107.22" cy="36.48" rx=".44" ry=".39" transform="translate(-2.23 7.35) rotate(-3.89)"/>
    <path class="cls-4" d="M109.08,34.28s-5.33-5.86-11.8-5"/>
    <ellipse class="cls-1" cx="97.35" cy="29.28" rx=".59" ry=".41" transform="translate(-2.55 10.47) rotate(-6.08)"/>
    <ellipse class="cls-1" cx="109.17" cy="34.38" rx=".42" ry=".53" transform="translate(6.7 85.37) rotate(-43.94)"/>
  </g>
  <g id="linkerarm_geel" data-name="linkerarm geel">
    <path class="cls-3" d="M48.73,33.91l-21.81-6.64c-.89-.27-1.86-.14-2.64,.37l-13.8,8.95s-6.93-3.27-8.92,1.98c-1.82,4.79,1.32,6.44,1.32,6.44,0,0,1.65,2.64,9.09,1.49l11.98-6.46c.76-.41,1.66-.49,2.49-.22l8.54,2.8"/>
  </g>
  <g id="rechterbeen_geel" data-name="rechterbeen geel">
    <path class="cls-3" d="M64.09,93.31l-3.54,8.53s-3.74,8.95-.3,14.9c2.39,4.15,6,11.36,7.97,15.35,.75,1.53,.15,3.36-1.34,4.18-2.74,1.5-6.42,4.1-5.52,6.83,1.39,4.24,3.16,5.7,5.1,5.69s7.35-.6,10.18-2c1.76-.87,4.25-3.1,5.88-4.66,1-.95,1.26-2.44,.66-3.68l-11.94-24.33c-.39-.8-.43-1.73-.1-2.56,2.24-5.63,11-27.78,11.13-30.74"/>
  </g>
  <g id="rechterarm_geel" data-name="rechterarm geel">
    <path class="cls-3" d="M77.75,39.63l20.46-2.52c1.41-.17,2.77,.62,3.31,1.93l9.41,22.79s8.7,2.3,7.46,8.5c-1.24,6.2-5,7.38-5,7.38,0,0-5.57,1.46-9.76-4.63-4.19-6.08-7.24-16.25-7.24-16.25,0,0-2.37-6.73-3.11-7.79-.44-.64-7.81,1.91-7.81,1.91"/>
  </g>
  <g id="been_geel" data-name="been geel">
    <path class="cls-3" d="M46.79,90.68l-9.68,21.79c-.45,1.02-.33,2.2,.31,3.11l9.91,13.95c.9,1.27,.75,3-.37,4.09-1.64,1.6-4.05,3.8-6.07,5.07-3.43,2.15-8.65,2.32-8.65,2.32,0,0-4.91,.05-6.95-3.07s.79-6.45,.79-6.45l4.77-3.14c1.64-1.08,1.91-3.38,.56-4.81-1.81-1.92-4.2-4.48-5.89-6.46-3.1-3.61-1.43-7.22-1.43-7.22l10.51-26.82,12.21,7.64Z"/>
  </g>
  <g id="hoofd_geel" data-name="hoofd geel">
    <path class="cls-3" d="M66.48,35.09v-4.69c0-1.29,.78-2.43,1.97-2.93,3.59-1.48,10.9-5.74,8.11-15.01-2.27-7.55-9.35-10.44-14.3-11.23,0,0-4.86-1.38-10.02,2.51-.89,.67-2.37,1.49-4.05,6.03-1.82,4.93-.81,10.94,2.72,14.83,.18,.2,.38,.41,.58,.61,.3,.3,.59,.9,.62,1.88v5.52"/>
  </g>
  <g id="buik_geel" data-name="buik geel">
    <circle class="cls-3" cx="57.53" cy="63.05" r="30.44"/>
    <circle class="cls-2" cx="57.53" cy="61.64" r="19.64"/>
  </g>
</svg>