<?xml version="1.0" encoding="UTF-8"?>
<svg id="Laag_1" xmlns="http://www.w3.org/2000/svg" viewBox="0 0 52.43 52.43">
  <defs>
    <style>
      .cls-1 {
        stroke-width: 5px;
      }

      .cls-1, .cls-2 {
        fill: none;
        stroke: #1d1d1b;
        stroke-miterlimit: 10;
      }

      .cls-3 {
        opacity: .98;
      }

      .cls-4 {
        fill: #cbcac8;
      }
    </style>
  </defs>
  <path class="cls-4" d="M36.84,15.86c3.22,0,3.22-5,0-5s-3.22,5,0,5h0Z"/>
  <path class="cls-4" d="M35.05,11.55c-2.75,2.55-4.67,5.85-7.38,8.44-.95.9-.98,2.64,0,3.54s2.52.96,3.54,0c2.71-2.59,4.63-5.88,7.38-8.44.96-.89.97-2.65,0-3.54-1.03-.94-2.51-.95-3.54,0h0Z"/>
  <path class="cls-4" d="M41.06,9.99c-.07-.13-.14-.25-.23-.36-.21-.28-.41-.57-.66-.81s-.54-.45-.82-.65c-.12-.08-.24-.16-.37-.22-.29-.18-.6-.28-.93-.3-.33-.07-.66-.06-1,.04-.33.08-.61.23-.85.45-.27.18-.49.41-.64.7l-.25.6c-.12.44-.12.89,0,1.33l.25.6c.22.38.52.67.9.9.16.08.31.17.46.28l-.51-.39c.18.14.34.3.49.49l-.39-.51c.09.12.17.24.24.38.16.29.37.53.64.7.24.22.52.37.85.45.33.1.66.12,1,.04.33-.02.64-.11.93-.3l.51-.39c.31-.31.52-.68.64-1.1l.09-.66c0-.45-.12-.87-.34-1.26h0Z"/>
  <path class="cls-4" d="M40.28,15.64c3.22,0,3.22-5,0-5s-3.22,5,0,5h0Z"/>
  <path class="cls-4" d="M39.24,15.04c2.2,2.53,3.62,5.63,4.2,8.92.62,3.52-.31,6.54-2.01,9.6s-3.31,5.49-6.29,7.14-6.52,2.15-9.93,2.07c-1.56-.03-3.17-.1-4.69-.43-1.77-.39-2.75-1.56-3.95-2.84-2.4-2.57-5.28-5.1-6.29-8.56-.46-1.57-.95-3.21-1.08-4.84-.14-1.92.28-3.8.92-5.6,1-2.77,2.77-5.25,4.95-7.21,5.22-4.72,13.12-5.61,19.27-2.21,2.82,1.56,5.34-2.76,2.52-4.32-7.16-3.96-16.38-3.62-23.08,1.19C7.01,12.83,2.79,21.26,4.77,29.62c.52,2.18,1.07,4.47,2.27,6.39s2.78,3.52,4.27,5.15,2.87,3.34,4.64,4.61,4.07,1.59,6.25,1.81c4.3.43,8.86.24,12.92-1.39s7.05-4.19,9.31-7.85c2.63-4.25,4.65-8.7,4.1-13.81s-2.54-9.33-5.75-13.03c-.89-1.02-2.63-.91-3.54,0-1.01,1.01-.89,2.51,0,3.54h0Z"/>
  <path class="cls-4" d="M43.38,29.64c-3.77-1.42-7.56-2.78-11.38-4.09-1.24-.42-2.79.48-3.08,1.75-.32,1.39.42,2.62,1.75,3.08,3.81,1.3,7.61,2.67,11.38,4.09,1.23.46,2.79-.51,3.08-1.75.32-1.42-.43-2.58-1.75-3.08h0Z"/>
  <path class="cls-4" d="M27.69,44.8c-.16-2.18.22-4.39.44-6.56s.45-4.44.68-6.66c.13-1.31-1.24-2.56-2.5-2.5-1.47.07-2.36,1.1-2.5,2.5-.23,2.22-.45,4.44-.68,6.66s-.61,4.38-.44,6.56c.1,1.3,1.08,2.56,2.5,2.5,1.27-.06,2.6-1.1,2.5-2.5h0Z"/>
  <path class="cls-4" d="M25.84,44.03c3.22,0,3.22-5,0-5s-3.22,5,0,5h0Z"/>
  <path class="cls-4" d="M26.06,43.14c3.22,0,3.22-5,0-5s-3.22,5,0,5h0Z"/>
  <path class="cls-4" d="M26.12,41.75c3.22,0,3.22-5,0-5s-3.22,5,0,5h0Z"/>
  <path class="cls-4" d="M10.72,33.72c1.02-.17,1.93-.72,2.83-1.2.1-.06.21-.11.31-.16.25-.12.21-.1-.12.04.1-.1.44-.14.56-.18.48-.13.97-.21,1.45-.33,1.95-.46,3.84-1.14,5.72-1.81,1.23-.44,2.18-1.72,1.75-3.08-.39-1.21-1.76-2.22-3.08-1.75-1.88.67-3.77,1.35-5.72,1.81-1.09.26-2.08.47-3.09.96-.37.18-.72.39-1.09.58-.1.05-.21.11-.31.16-.25.11-.21.1.12-.05-.03.09-.58.15-.67.17-1.29.22-2.13,1.88-1.75,3.08.45,1.4,1.69,1.98,3.08,1.75h0Z"/>
  <path class="cls-4" d="M14.98,14.39c1.91,2.9,3.82,5.8,5.74,8.69.72,1.09,2.24,1.66,3.42.9,1.09-.7,1.67-2.25.9-3.42-1.91-2.9-3.82-5.8-5.74-8.69-.72-1.09-2.24-1.66-3.42-.9-1.09.7-1.67,2.25-.9,3.42h0Z"/>
  <g class="cls-3">
    <path class="cls-4" d="M24.01,21.32c1.04.3,2.18.32,3.24.13l-.36-1.34c-.49.24-.99.44-1.51.62l.38-.13c-.23.08-.46.15-.69.21-.41.11-.91.31-1.16.68-.1.12-.13.25-.1.4.05.14.15.24.29.3.42.25.94.31,1.42.34.33.02.66,0,.99.03l-.32-.03c.1,0,.19.02.29.04l1.46-1.56c-1.05-.03-2.14.11-3.15.44-.44.14-.99.34-1.21.78-.05.06-.07.13-.05.2-.02.07,0,.13.05.19.11.18.31.25.51.29.91.21,1.86.29,2.79.24.4-.02.77-.07,1.14-.23.25-.11.63-.3.78-.55.11-.18.18-.41,0-.58-.2-.18-.52-.25-.78-.24-.44.02-.88.01-1.32-.03l.32.03c-.39-.04-.77-.1-1.15-.19l-.71,1.46c.26-.08.52-.15.78-.21l-.39.08c.31-.06.63-.1.94-.12l-.36.02c.22-.01.44-.02.67,0,.36.01.8-.08,1.14-.23.25-.11.49-.25.69-.45.11-.12.27-.32.2-.51-.09-.24-.33-.33-.56-.38-.56-.12-1.13-.06-1.7-.11l.32.03c-.13-.01-.27-.04-.4-.07l.26.08c-.12-.04-.23-.09-.33-.15l-.97,1.38c.88-.25,1.75-.56,2.57-.96.25-.12.49-.24.69-.45.11-.12.27-.32.2-.51-.05-.14-.16-.23-.29-.3-.14-.06-.28-.09-.43-.1-.17-.02-.35-.02-.53,0-.24.04-.47.07-.71.09l.36-.02c-.27.01-.54.01-.81-.01l.32.03c-.35-.03-.69-.1-1.03-.19-.17-.03-.34-.04-.5-.02-.19,0-.39.03-.57.09-.32.09-.72.25-.97.48-.15.14-.38.37-.29.61.09.25.33.31.56.38h0Z"/>
  </g>
  <g class="cls-3">
    <path class="cls-4" d="M28.86,23.76c.21.19.4.39.54.64l-.11-.2c.2.4.33.85.48,1.28.08.21.15.43.23.64.07.19.15.37.17.58v-.23c0,.06-.01.11-.03.16l.09-.23s-.02.04-.04.06l.18-.22.49-.32.77-.21c.27,0,.35,0,.23,0-.03,0-.05,0-.08,0-.15-.01-.32,0-.48.02-.28.04-.56.11-.82.23l-.05.03c-.4.22-.43.23-.1.05l.77-.21h.28c.2.04.4.09.6.14-.02,0-.05-.02-.06-.04l.2.15s-.03-.04-.05-.06l.11.2c-.11-.23-.07-.53-.09-.77-.03-.29-.07-.59-.12-.88-.11-.59-.28-1.17-.5-1.73-.24-.61-1.15-.57-1.67-.42-.34.1-.71.25-.96.51-.16.17-.37.43-.27.68.29.73.49,1.5.59,2.28.02.18.04.37.06.55.01.16,0,.33.05.49.13.39.48.58.87.64.34.05.68.02,1.01-.06.14-.04.29-.09.43-.15.36-.19.43-.23.21-.11-.13.06-.15.08-.06.04l-.77.21c-.35.05-.32,0-.18.02s.3,0,.45,0c.4-.03.84-.18,1.18-.41.3-.19.62-.51.65-.89.03-.44-.17-.86-.32-1.26s-.28-.82-.44-1.22c-.18-.45-.43-.8-.77-1.12-.22-.21-.5-.29-.8-.3-.36-.02-.81.06-1.14.22-.28.13-.62.31-.77.6-.1.2-.17.48.02.66h0Z"/>
  </g>
  <g class="cls-3">
    <path class="cls-4" d="M29.45,27.56c-.32-.01-.71.12-.99.27-.32.17-.5.35-.75.61-.18.19-.36.37-.54.56-.17.18-.35.34-.5.53-.3.36-.47.81-.38,1.28.11.56.64.9,1.17.99.45.07.93-.02,1.34-.22.19-.09.37-.22.55-.34.44-.29.88-.59,1.31-.88l-.32.2s.06-.04.1-.05l-.37.14h.03c-.13.01-.26.03-.4.05h.03c-.13,0-.25-.01-.38-.02h.03c-.11-.03-.23-.06-.34-.09h.03c-.09-.04-.19-.09-.28-.15l.03.02-.21-.22.02.03-.13-.27v.03c0-.1,0-.2-.02-.3,0,.02,0,.04,0,.07l.08-.29v.03c.04-.09.1-.18.15-.28-.02.03-.04.06-.07.09l.25-.25c-.58.54-1.24,1.01-1.89,1.45-.24.17-.47.52-.49.82s.12.62.37.79c.29.2.65.29,1,.26l.4-.06c.25-.07.48-.18.69-.34.38-.26.75-.52,1.11-.8.18-.14.36-.28.53-.43.34-.28.67-.57.79-1.01.05-.2.08-.29.02-.51-.03-.12-.09-.23-.16-.33-.29-.4-.83-.53-1.3-.51-.32.02-.66.11-.94.27-.2.11-.38.24-.57.37-.39.26-.78.53-1.18.79l.32-.2s-.1.06-.15.08l.37-.14s-.05.02-.08.02l.4-.06h-.04c.13,0,.25.01.38.02h-.04c.11.02.23.05.34.08-.02,0-.04-.01-.06-.02l.28.16s-.03-.02-.05-.04l.21.22s-.04-.05-.06-.08l.13.27s-.03-.08-.04-.12l.02.3s0-.09,0-.13l-.08.29c.01-.05.03-.1.06-.15l-.17.28c.14-.23.36-.41.54-.61.21-.22.41-.43.62-.65l-.25.25s.1-.09.16-.13l-.32.2s.05-.03.07-.04l-.37.14s.05-.02.07-.02l-.4.06s.05,0,.08,0c.2,0,.4-.05.58-.14.19-.06.35-.15.5-.27.23-.18.49-.51.49-.82s-.1-.61-.37-.79l-.28-.16c-.23-.09-.47-.12-.71-.1h0Z"/>
  </g>
  <g class="cls-3">
    <path class="cls-4" d="M25.96,30.68c-.08,0-.15,0-.23.01-.12,0-.08,0,.14,0-.04,0-.08,0-.11,0-.04,0-.08,0-.11-.01.16.03.19.03.09,0-.07-.03-.14-.05-.21-.08l.18.08c-.47-.24-.79-.75-1.11-1.15-.38-.47-.77-.94-1.15-1.41l-2.54,1.1c.31.12.62.24.93.38l-.18-.08c.72.33,1.4.71,2.05,1.15.2.14.52.13.75.12.37-.02.78-.11,1.13-.25.17-.07,1.3-.58.85-.89-.98-.66-2.05-1.2-3.16-1.61-.26-.09-.67-.04-.93,0-.32.06-.64.15-.94.28-.21.09-.49.21-.64.39l-.11.16c-.05.11-.02.2.07.27.53.64,1.05,1.28,1.58,1.93.25.31.5.55.87.71.48.21,1.06.19,1.58.15.38-.03.77-.11,1.13-.25.25-.09.63-.25.8-.46.1-.12.22-.3.04-.42-.2-.14-.52-.14-.75-.12h0Z"/>
  </g>
  <g class="cls-3">
    <path class="cls-4" d="M23.39,26.83c.07-1.43.09-2.87.05-4.3,0-.34-.67-.38-.87-.39-.52,0-1,.16-1.46.39-.96.48-1.29,1.56-1.68,2.48-.09.21.12.4.28.48.27.13.67.12.95.08.6-.09,1.39-.34,1.66-.95.32-.73.54-1.5.65-2.29.09-.61-.83-.62-1.23-.55-.38.06-.77.16-1.1.37-.2.13-.52.32-.56.58-.11.79-.33,1.56-.65,2.29l2.89-.39c.19-.45.37-.9.59-1.33l-.1.2c.05-.1.11-.19.18-.28.08-.11-.02.02-.06.05.17-.16-.26.15-.05.04h-2.34c.02.84.03,1.67,0,2.51v-.19c0,.54-.03,1.07-.05,1.61-.01.24.05.37.28.48.27.13.67.12.95.08.38-.06.77-.16,1.1-.37.19-.12.55-.33.56-.58h0Z"/>
  </g>
  <path class="cls-2" d="M18.27,11.44l6.22,8.06h3.22l7.56-7.78s-9.06-5.83-17-.28Z"/>
  <path class="cls-2" d="M40.77,33.55l-9.22-3.06-2.61,2.11-.56,10.11s9.78-.27,12.39-9.17Z"/>
  <path class="cls-2" d="M23.05,42.44l.39-10-2.28-1.94-9.94,2.78s4.31,9.53,11.83,9.17Z"/>
  <path class="cls-2" d="M9.88,29.27l9.44-3.89.72-3-5.08-8.94s-7.97,7.44-5.08,15.83Z"/>
  <circle class="cls-2" cx="26.21" cy="26.21" r="2.83"/>
  <path class="cls-2" d="M38.49,15l-6.2,7.87,1.23,3.13,9.47,3.58s2.05-9.43-4.5-14.58Z"/>
  <circle class="cls-1" cx="26.21" cy="26.21" r="23.71"/>
</svg>