<?xml version="1.0" encoding="UTF-8"?>
<svg id="Laag_1" data-name="Laag 1" xmlns="http://www.w3.org/2000/svg" viewBox="0 0 400 1080">
  <defs>
    <style>
      .cls-1 {
        fill: #b3dfed;
      }

      .cls-1, .cls-2, .cls-3, .cls-4, .cls-5, .cls-6, .cls-7, .cls-8, .cls-9, .cls-10 {
        stroke-width: 0px;
      }

      .cls-2 {
        fill: #807e7a;
      }

      .cls-3 {
        fill: #46403c;
      }

      .cls-4 {
        fill: #b35d31;
      }

      .cls-5 {
        fill: #934215;
      }

      .cls-6 {
        fill: #058b65;
      }

      .cls-7 {
        fill: #575756;
      }

      .cls-8 {
        fill: #00a47c;
      }

      .cls-9 {
        fill: #fff;
      }

      .cls-10 {
        fill: #aaa29c;
      }
    </style>
  </defs>
  <rect class="cls-7" width="400" height="1080"/>
  <g>
    <path class="cls-3" d="M159.6,1075.28h80.81c2.06,0,3.73,1.67,3.73,3.73h-88.27c0-2.06,1.67-3.73,3.73-3.73Z"/>
    <g>
      <g>
        <g>
          <rect class="cls-4" x="164.98" y="1062.44" width="1.79" height="12.84"/>
          <path class="cls-5" d="M166.77,1066.3v3.56c-.73.21-1.22.17-1.79.02v-3.57h1.79Z"/>
        </g>
        <g>
          <circle class="cls-6" cx="165.87" cy="1060.53" r="7.76" transform="translate(-904.51 979.78) rotate(-76.8)"/>
          <circle class="cls-8" cx="166.43" cy="1059.63" r="6.66" transform="translate(-906.18 1053.54) rotate(-80.75)"/>
        </g>
      </g>
      <g>
        <g>
          <rect class="cls-4" x="233.23" y="1062.44" width="1.79" height="12.84"/>
          <path class="cls-5" d="M235.02,1066.3v3.56c-.73.21-1.22.17-1.79.02v-3.57h1.79Z"/>
        </g>
        <g>
          <circle class="cls-6" cx="234.13" cy="1060.53" r="7.76" transform="translate(-849.61 989.49) rotate(-73.8)"/>
          <circle class="cls-8" cx="234.68" cy="1059.63" r="6.66" transform="translate(-850.51 1043.28) rotate(-76.65)"/>
        </g>
      </g>
    </g>
    <g>
      <g>
        <rect class="cls-10" x="185.66" y="998.69" width="28.86" height="39.2"/>
        <rect class="cls-2" x="179.84" y="1035.83" width="40.5" height="1.51"/>
        <rect class="cls-2" x="185.66" y="1000.47" width="28.86" height="1.51"/>
        <path class="cls-3" d="M184.34,998.69h31.5c0,1.12-.91,2.03-2.03,2.03h-27.43c-1.12,0-2.03-.91-2.03-2.03h0Z"/>
      </g>
      <g>
        <rect class="cls-10" x="179.84" y="1034.09" width="40.5" height="25.58"/>
        <rect class="cls-2" x="179.84" y="1035.83" width="40.5" height="1.51"/>
        <path class="cls-3" d="M177.58,1034.09h44.13c0,1.12-.91,2.03-2.03,2.03h-40.07c-1.12,0-2.03-.91-2.03-2.03h0Z"/>
      </g>
      <rect class="cls-10" x="176.2" y="1049.7" width="47.77" height="25.58"/>
      <rect class="cls-2" x="176.2" y="1050.68" width="47.77" height="1.51"/>
      <rect class="cls-2" x="176.2" y="1065.74" width="47.77" height="9.53"/>
      <rect class="cls-2" x="176.2" y="1062.31" width="47.77" height="1.41"/>
      <path class="cls-3" d="M174.53,1048.64h50.94c0,1.13-.92,2.04-2.04,2.04h-46.85c-1.13,0-2.04-.92-2.04-2.04h0Z"/>
      <g>
        <path class="cls-3" d="M206.2,1075.28h-12.21v-11.94c0-3.37,2.73-6.11,6.11-6.11h0c3.37,0,6.11,2.73,6.11,6.11v11.94Z"/>
        <g>
          <path class="cls-1" d="M205.3,1063.34v11.94h-10.43v-11.94c0-.06,0-.13,0-.19.1-2.73,2.29-4.92,5.02-5.02.06,0,.13,0,.19,0,.91,0,1.76.23,2.51.64.44.24.83.54,1.18.89s.62.71.86,1.12c.21.38.38.78.5,1.21.12.43.18.88.18,1.35Z"/>
          <path class="cls-9" d="M202.59,1058.76l-7.72,7.72v-3.34h0s5.02-5.02,5.02-5.02h0s.19,0,.19,0c.91,0,1.76.23,2.51.64Z"/>
          <path class="cls-9" d="M205.13,1061.99l-10.26,10.26v-1.71l9.76-9.76c.21.38.38.78.5,1.21Z"/>
          <polygon class="cls-9" points="205.3 1065.91 205.3 1068.91 198.94 1075.28 195.94 1075.28 205.3 1065.91"/>
        </g>
        <rect class="cls-3" x="199.64" y="1057.23" width=".89" height="18.04"/>
      </g>
      <g>
        <g>
          <g>
            <rect class="cls-3" x="188.8" y="1002.93" width="4.09" height="7.59"/>
            <rect class="cls-1" x="189.31" y="1003.4" width="3.08" height="6.63"/>
            <polygon class="cls-9" points="192.39 1003.4 192.39 1003.71 189.31 1006.79 189.31 1005.48 191.39 1003.4 192.39 1003.4"/>
            <polygon class="cls-9" points="192.39 1006.91 192.39 1008.71 191.07 1010.02 189.31 1010.02 189.31 1009.99 192.39 1006.91"/>
          </g>
          <g>
            <rect class="cls-3" x="194.96" y="1002.93" width="4.09" height="7.59"/>
            <rect class="cls-1" x="195.47" y="1003.4" width="3.08" height="6.63"/>
            <polygon class="cls-9" points="198.55 1003.4 198.55 1003.71 195.47 1006.79 195.47 1005.48 197.55 1003.4 198.55 1003.4"/>
            <polygon class="cls-9" points="198.55 1006.91 198.55 1008.71 197.23 1010.02 195.47 1010.02 195.47 1009.99 198.55 1006.91"/>
          </g>
          <g>
            <rect class="cls-3" x="201.12" y="1002.93" width="4.09" height="7.59"/>
            <rect class="cls-1" x="201.63" y="1003.4" width="3.08" height="6.63"/>
            <polygon class="cls-9" points="204.71 1003.4 204.71 1003.71 201.63 1006.79 201.63 1005.48 203.71 1003.4 204.71 1003.4"/>
            <polygon class="cls-9" points="204.71 1006.91 204.71 1008.71 203.39 1010.02 201.63 1010.02 201.63 1009.99 204.71 1006.91"/>
          </g>
          <g>
            <rect class="cls-3" x="207.28" y="1002.93" width="4.09" height="7.59"/>
            <rect class="cls-1" x="207.79" y="1003.4" width="3.08" height="6.63"/>
            <polygon class="cls-9" points="210.87 1003.4 210.87 1003.71 207.79 1006.79 207.79 1005.48 209.87 1003.4 210.87 1003.4"/>
            <polygon class="cls-9" points="210.87 1006.91 210.87 1008.71 209.55 1010.02 207.79 1010.02 207.79 1009.99 210.87 1006.91"/>
          </g>
        </g>
        <g>
          <g>
            <rect class="cls-3" x="188.8" y="1013.08" width="4.09" height="7.59"/>
            <rect class="cls-1" x="189.31" y="1013.54" width="3.08" height="6.63"/>
            <polygon class="cls-9" points="192.39 1013.54 192.39 1013.86 189.31 1016.94 189.31 1015.62 191.39 1013.54 192.39 1013.54"/>
            <polygon class="cls-9" points="192.39 1017.06 192.39 1018.85 191.07 1020.17 189.31 1020.17 189.31 1020.14 192.39 1017.06"/>
          </g>
          <g>
            <rect class="cls-3" x="194.96" y="1013.08" width="4.09" height="7.59"/>
            <rect class="cls-1" x="195.47" y="1013.54" width="3.08" height="6.63"/>
            <polygon class="cls-9" points="198.55 1013.54 198.55 1013.86 195.47 1016.94 195.47 1015.62 197.55 1013.54 198.55 1013.54"/>
            <polygon class="cls-9" points="198.55 1017.06 198.55 1018.85 197.23 1020.17 195.47 1020.17 195.47 1020.14 198.55 1017.06"/>
          </g>
          <g>
            <rect class="cls-3" x="201.12" y="1013.08" width="4.09" height="7.59"/>
            <rect class="cls-1" x="201.63" y="1013.54" width="3.08" height="6.63"/>
            <polygon class="cls-9" points="204.71 1013.54 204.71 1013.86 201.63 1016.94 201.63 1015.62 203.71 1013.54 204.71 1013.54"/>
            <polygon class="cls-9" points="204.71 1017.06 204.71 1018.85 203.39 1020.17 201.63 1020.17 201.63 1020.14 204.71 1017.06"/>
          </g>
          <g>
            <rect class="cls-3" x="207.28" y="1013.08" width="4.09" height="7.59"/>
            <rect class="cls-1" x="207.79" y="1013.54" width="3.08" height="6.63"/>
            <polygon class="cls-9" points="210.87 1013.54 210.87 1013.86 207.79 1016.94 207.79 1015.62 209.87 1013.54 210.87 1013.54"/>
            <polygon class="cls-9" points="210.87 1017.06 210.87 1018.85 209.55 1020.17 207.79 1020.17 207.79 1020.14 210.87 1017.06"/>
          </g>
        </g>
        <g>
          <g>
            <rect class="cls-3" x="188.8" y="1023.23" width="4.09" height="7.59"/>
            <rect class="cls-1" x="189.31" y="1023.69" width="3.08" height="6.63"/>
            <polygon class="cls-9" points="192.39 1023.69 192.39 1024.01 189.31 1027.09 189.31 1025.77 191.39 1023.69 192.39 1023.69"/>
            <polygon class="cls-9" points="192.39 1027.21 192.39 1029 191.07 1030.32 189.31 1030.32 189.31 1030.29 192.39 1027.21"/>
          </g>
          <g>
            <rect class="cls-3" x="194.96" y="1023.23" width="4.09" height="7.59"/>
            <rect class="cls-1" x="195.47" y="1023.69" width="3.08" height="6.63"/>
            <polygon class="cls-9" points="198.55 1023.69 198.55 1024.01 195.47 1027.09 195.47 1025.77 197.55 1023.69 198.55 1023.69"/>
            <polygon class="cls-9" points="198.55 1027.21 198.55 1029 197.23 1030.32 195.47 1030.32 195.47 1030.29 198.55 1027.21"/>
          </g>
          <g>
            <rect class="cls-3" x="201.12" y="1023.23" width="4.09" height="7.59"/>
            <rect class="cls-1" x="201.63" y="1023.69" width="3.08" height="6.63"/>
            <polygon class="cls-9" points="204.71 1023.69 204.71 1024.01 201.63 1027.09 201.63 1025.77 203.71 1023.69 204.71 1023.69"/>
            <polygon class="cls-9" points="204.71 1027.21 204.71 1029 203.39 1030.32 201.63 1030.32 201.63 1030.29 204.71 1027.21"/>
          </g>
          <g>
            <rect class="cls-3" x="207.28" y="1023.23" width="4.09" height="7.59"/>
            <rect class="cls-1" x="207.79" y="1023.69" width="3.08" height="6.63"/>
            <polygon class="cls-9" points="210.87 1023.69 210.87 1024.01 207.79 1027.09 207.79 1025.77 209.87 1023.69 210.87 1023.69"/>
            <polygon class="cls-9" points="210.87 1027.21 210.87 1029 209.55 1030.32 207.79 1030.32 207.79 1030.29 210.87 1027.21"/>
          </g>
        </g>
      </g>
      <g>
        <g>
          <rect class="cls-3" x="182.75" y="1038.49" width="4.09" height="7.59"/>
          <rect class="cls-1" x="183.25" y="1038.95" width="3.08" height="6.63"/>
          <polygon class="cls-9" points="186.33 1038.95 186.33 1039.27 183.25 1042.35 183.25 1041.03 185.33 1038.95 186.33 1038.95"/>
          <polygon class="cls-9" points="186.33 1042.47 186.33 1044.26 185.02 1045.58 183.25 1045.58 183.25 1045.55 186.33 1042.47"/>
        </g>
        <g>
          <rect class="cls-3" x="188.91" y="1038.49" width="4.09" height="7.59"/>
          <rect class="cls-1" x="189.41" y="1038.95" width="3.08" height="6.63"/>
          <polygon class="cls-9" points="192.49 1038.95 192.49 1039.27 189.41 1042.35 189.41 1041.03 191.49 1038.95 192.49 1038.95"/>
          <polygon class="cls-9" points="192.49 1042.47 192.49 1044.26 191.18 1045.58 189.41 1045.58 189.41 1045.55 192.49 1042.47"/>
        </g>
        <g>
          <rect class="cls-3" x="195.07" y="1038.49" width="4.09" height="7.59"/>
          <rect class="cls-1" x="195.57" y="1038.95" width="3.08" height="6.63"/>
          <polygon class="cls-9" points="198.65 1038.95 198.65 1039.27 195.57 1042.35 195.57 1041.03 197.65 1038.95 198.65 1038.95"/>
          <polygon class="cls-9" points="198.65 1042.47 198.65 1044.26 197.34 1045.58 195.57 1045.58 195.57 1045.55 198.65 1042.47"/>
        </g>
        <g>
          <rect class="cls-3" x="201.12" y="1038.49" width="4.09" height="7.59"/>
          <rect class="cls-1" x="201.63" y="1038.95" width="3.08" height="6.63"/>
          <polygon class="cls-9" points="204.71 1038.95 204.71 1039.27 201.63 1042.35 201.63 1041.03 203.71 1038.95 204.71 1038.95"/>
          <polygon class="cls-9" points="204.71 1042.47 204.71 1044.26 203.39 1045.58 201.63 1045.58 201.63 1045.55 204.71 1042.47"/>
        </g>
        <g>
          <rect class="cls-3" x="207.28" y="1038.49" width="4.09" height="7.59"/>
          <rect class="cls-1" x="207.79" y="1038.95" width="3.08" height="6.63"/>
          <polygon class="cls-9" points="210.86 1038.95 210.86 1039.27 207.79 1042.35 207.79 1041.03 209.87 1038.95 210.86 1038.95"/>
          <polygon class="cls-9" points="210.86 1042.47 210.86 1044.26 209.55 1045.58 207.79 1045.58 207.79 1045.55 210.86 1042.47"/>
        </g>
        <g>
          <rect class="cls-3" x="213.34" y="1038.49" width="4.09" height="7.59"/>
          <rect class="cls-1" x="213.85" y="1038.95" width="3.08" height="6.63"/>
          <polygon class="cls-9" points="216.92 1038.95 216.92 1039.27 213.85 1042.35 213.85 1041.03 215.92 1038.95 216.92 1038.95"/>
          <polygon class="cls-9" points="216.92 1042.47 216.92 1044.26 215.61 1045.58 213.85 1045.58 213.85 1045.55 216.92 1042.47"/>
        </g>
      </g>
      <rect class="cls-10" x="188.8" y="992.56" width="22.57" height="6.13"/>
      <rect class="cls-2" x="188.8" y="992.56" width="22.57" height="1.51"/>
      <path class="cls-3" d="M186.29,990.52h27.6c0,1.12-.91,2.03-2.03,2.03h-23.53c-1.12,0-2.03-.91-2.03-2.03h0Z"/>
    </g>
  </g>
</svg>