<?xml version="1.0" encoding="UTF-8"?>
<svg id="Laag_1" data-name="Laag 1" xmlns="http://www.w3.org/2000/svg" viewBox="0 0 400 1080">
  <defs>
    <style>
      .cls-1 {
        fill: #b3dfed;
      }

      .cls-1, .cls-2, .cls-3, .cls-4, .cls-5, .cls-6, .cls-7, .cls-8, .cls-9, .cls-10 {
        stroke-width: 0px;
      }

      .cls-2 {
        fill: #807e7a;
      }

      .cls-3 {
        fill: #46403c;
      }

      .cls-4 {
        fill: #b35d31;
      }

      .cls-5 {
        fill: #934215;
      }

      .cls-6 {
        fill: #058b65;
      }

      .cls-7 {
        fill: #575756;
      }

      .cls-8 {
        fill: #00a47c;
      }

      .cls-9 {
        fill: #fff;
      }

      .cls-10 {
        fill: #aaa29c;
      }
    </style>
  </defs>
  <rect class="cls-7" width="400" height="1080"/>
  <g>
    <rect class="cls-10" x="171.66" y="999.6" width="56.68" height="75.84"/>
    <rect class="cls-2" x="171.66" y="1064.15" width="56.68" height="11.29"/>
    <rect class="cls-2" x="171.66" y="1060.09" width="56.68" height="1.67"/>
    <g>
      <g>
        <path class="cls-4" d="M163.02,1068.8c-.17.24-.36.45-.58.66-1.33,1.26-3.01,1.42-3.81,1.42-.27,0-.44-.02-.46-.02l.15-1.27.14-1.27s.83.07,1.61-.3c.22-.1.44-.25.64-.44.72-.69,1.03-1.88.92-3.54l2.55-.16c.13,2.06-.26,3.71-1.15,4.91Z"/>
        <path class="cls-5" d="M163.02,1068.8c-1.31-.04-2.38-.48-2.95-.77.22-.1.44-.25.64-.44.72-.69,1.03-1.88.92-3.54l2.55-.16c.13,2.06-.26,3.71-1.15,4.91Z"/>
      </g>
      <g>
        <rect class="cls-4" x="156.84" y="1058.19" width="2.4" height="17.24"/>
        <path class="cls-5" d="M159.24,1063.37v4.78c-.97.28-1.64.23-2.4.02v-4.8h2.4Z"/>
      </g>
      <g>
        <path class="cls-8" d="M163.43,1058.2c0,2.56-1.36,4.8-3.39,6.05-.49.3-1.02.55-1.59.72-.67.21-1.38.32-2.12.32-3.92,0-7.1-3.18-7.1-7.1s3.18-7.1,7.1-7.1c.43,0,.86.04,1.27.11h0c1.88.34,3.51,1.42,4.56,2.93.8,1.15,1.27,2.55,1.27,4.05Z"/>
        <path class="cls-8" d="M169.28,1060.46c0,3.51-2.85,6.36-6.36,6.36-1.74,0-3.32-.7-4.47-1.84-.41-.4-.77-.87-1.06-1.37-.53-.93-.83-2-.83-3.15,0-3.25,2.44-5.93,5.59-6.31.25-.03.5-.05.76-.05,2.85,0,5.27,1.88,6.07,4.47,0,0,0,0,0,0,.18.59.28,1.22.28,1.87Z"/>
        <path class="cls-8" d="M164.12,1054.1c0,1.93-1.56,3.49-3.49,3.49s-3.49-1.56-3.49-3.49,1.56-3.49,3.49-3.49,3.49,1.56,3.49,3.49Z"/>
      </g>
      <path class="cls-6" d="M169.28,1060.46c0,3.51-2.85,6.36-6.36,6.36-1.74,0-3.32-.7-4.47-1.84-.67.21-1.38.32-2.12.32-3.92,0-7.1-3.18-7.1-7.1s3.18-7.1,7.1-7.1c.43,0,.86.04,1.27.11h0s-5.1.39-5.62,4.97c-.45,3.94,1.82,7.33,5.42,7.42.58.01,1.2-.06,1.84-.23,0,0,.22.43.8.88.72.56,2.01,1.17,4.15,1.05,3.86-.22,5.33-4.32,4.8-6.71.18.59.28,1.22.28,1.87Z"/>
    </g>
    <g>
      <g>
        <path class="cls-4" d="M244.51,1068.8c-.17.24-.36.45-.58.66-1.33,1.26-3.01,1.42-3.81,1.42-.27,0-.44-.02-.46-.02l.15-1.27.14-1.27s.83.07,1.61-.3c.22-.1.44-.25.64-.44.72-.69,1.03-1.88.92-3.54l2.55-.16c.13,2.06-.26,3.71-1.15,4.91Z"/>
        <path class="cls-5" d="M244.51,1068.8c-1.31-.04-2.38-.48-2.95-.77.22-.1.44-.25.64-.44.72-.69,1.03-1.88.92-3.54l2.55-.16c.13,2.06-.26,3.71-1.15,4.91Z"/>
      </g>
      <g>
        <rect class="cls-4" x="238.33" y="1058.19" width="2.4" height="17.24"/>
        <path class="cls-5" d="M240.73,1063.37v4.78c-.97.28-1.64.23-2.4.02v-4.8h2.4Z"/>
      </g>
      <g>
        <path class="cls-8" d="M244.92,1058.2c0,2.56-1.36,4.8-3.39,6.05-.49.3-1.02.55-1.59.72-.67.21-1.38.32-2.12.32-3.92,0-7.1-3.18-7.1-7.1s3.18-7.1,7.1-7.1c.43,0,.86.04,1.27.11h0c1.88.34,3.51,1.42,4.56,2.93.8,1.15,1.27,2.55,1.27,4.05Z"/>
        <path class="cls-8" d="M250.76,1060.46c0,3.51-2.85,6.36-6.36,6.36-1.74,0-3.32-.7-4.47-1.84-.41-.4-.77-.87-1.06-1.37-.53-.93-.83-2-.83-3.15,0-3.25,2.44-5.93,5.59-6.31.25-.03.5-.05.76-.05,2.85,0,5.27,1.88,6.07,4.47,0,0,0,0,0,0,.18.59.28,1.22.28,1.87Z"/>
        <path class="cls-8" d="M245.6,1054.1c0,1.93-1.56,3.49-3.49,3.49s-3.49-1.56-3.49-3.49,1.56-3.49,3.49-3.49,3.49,1.56,3.49,3.49Z"/>
      </g>
      <path class="cls-6" d="M250.76,1060.46c0,3.51-2.85,6.36-6.36,6.36-1.74,0-3.32-.7-4.47-1.84-.67.21-1.38.32-2.12.32-3.92,0-7.1-3.18-7.1-7.1s3.18-7.1,7.1-7.1c.43,0,.86.04,1.27.11h0s-5.1.39-5.62,4.97c-.45,3.94,1.82,7.33,5.42,7.42.58.01,1.2-.06,1.84-.23,0,0,.22.43.8.88.72.56,2.01,1.17,4.15,1.05,3.86-.22,5.33-4.32,4.8-6.71.18.59.28,1.22.28,1.87Z"/>
    </g>
    <polygon class="cls-10" points="219.24 997.13 219.24 999.6 180.64 999.6 180.64 997.13 182.89 997.13 182.89 986.76 216.98 986.76 216.98 997.13 219.24 997.13"/>
    <polygon class="cls-10" points="216.24 975.26 216.24 986.76 183.75 986.76 183.75 985.03 216.24 975.26"/>
    <rect class="cls-3" x="180.52" y="986.76" width="38.95" height="2.7"/>
    <g>
      <rect class="cls-10" x="171.66" y="996.89" width="56.68" height="2.7"/>
      <rect class="cls-3" x="171.66" y="1013.57" width="56.68" height="2.7"/>
      <rect class="cls-3" x="171.66" y="1030.25" width="56.68" height="2.7"/>
      <rect class="cls-3" x="171.66" y="1046.92" width="56.68" height="2.7"/>
    </g>
    <rect class="cls-2" x="182.89" y="989.46" width="34.09" height="2.12"/>
    <rect class="cls-3" x="171.66" y="999.6" width="56.68" height="2.28"/>
    <rect class="cls-2" x="171.66" y="1016.27" width="56.68" height="2.28"/>
    <rect class="cls-2" x="171.66" y="1032.98" width="56.68" height="2.28"/>
    <rect class="cls-2" x="171.66" y="1049.63" width="56.68" height="2.28"/>
    <g>
      <g>
        <rect class="cls-3" x="177.8" y="1002.95" width="4.84" height="8.99"/>
        <rect class="cls-1" x="178.4" y="1003.51" width="3.64" height="7.85"/>
        <polygon class="cls-9" points="182.04 1003.51 182.04 1003.88 178.4 1007.53 178.4 1005.97 180.86 1003.51 182.04 1003.51"/>
        <polygon class="cls-9" points="182.04 1007.67 182.04 1009.79 180.49 1011.35 178.4 1011.35 178.4 1011.31 182.04 1007.67"/>
      </g>
      <g>
        <rect class="cls-3" x="185.69" y="1002.95" width="4.84" height="8.99"/>
        <rect class="cls-1" x="186.29" y="1003.51" width="3.64" height="7.85"/>
        <polygon class="cls-9" points="189.93 1003.51 189.93 1003.88 186.29 1007.53 186.29 1005.97 188.75 1003.51 189.93 1003.51"/>
        <polygon class="cls-9" points="189.93 1007.67 189.93 1009.79 188.38 1011.35 186.29 1011.35 186.29 1011.31 189.93 1007.67"/>
      </g>
      <g>
        <rect class="cls-3" x="193.58" y="1002.95" width="4.84" height="8.99"/>
        <rect class="cls-1" x="194.18" y="1003.51" width="3.64" height="7.85"/>
        <polygon class="cls-9" points="197.82 1003.51 197.82 1003.88 194.18 1007.53 194.18 1005.97 196.64 1003.51 197.82 1003.51"/>
        <polygon class="cls-9" points="197.82 1007.67 197.82 1009.79 196.27 1011.35 194.18 1011.35 194.18 1011.31 197.82 1007.67"/>
      </g>
      <g>
        <rect class="cls-3" x="201.47" y="1002.95" width="4.84" height="8.99"/>
        <rect class="cls-1" x="202.07" y="1003.51" width="3.64" height="7.85"/>
        <polygon class="cls-9" points="205.71 1003.51 205.71 1003.88 202.07 1007.53 202.07 1005.97 204.53 1003.51 205.71 1003.51"/>
        <polygon class="cls-9" points="205.71 1007.67 205.71 1009.79 204.16 1011.35 202.07 1011.35 202.07 1011.31 205.71 1007.67"/>
      </g>
      <g>
        <rect class="cls-3" x="209.36" y="1002.95" width="4.84" height="8.99"/>
        <rect class="cls-1" x="209.96" y="1003.51" width="3.64" height="7.85"/>
        <polygon class="cls-9" points="213.6 1003.51 213.6 1003.88 209.96 1007.53 209.96 1005.97 212.42 1003.51 213.6 1003.51"/>
        <polygon class="cls-9" points="213.6 1007.67 213.6 1009.79 212.05 1011.35 209.96 1011.35 209.96 1011.31 213.6 1007.67"/>
      </g>
      <g>
        <rect class="cls-3" x="217.25" y="1002.95" width="4.84" height="8.99"/>
        <rect class="cls-1" x="217.85" y="1003.51" width="3.64" height="7.85"/>
        <polygon class="cls-9" points="221.49 1003.51 221.49 1003.88 217.85 1007.53 217.85 1005.97 220.31 1003.51 221.49 1003.51"/>
        <polygon class="cls-9" points="221.49 1007.67 221.49 1009.79 219.94 1011.35 217.85 1011.35 217.85 1011.31 221.49 1007.67"/>
      </g>
    </g>
    <g>
      <g>
        <rect class="cls-3" x="177.8" y="1019.49" width="4.84" height="8.99"/>
        <rect class="cls-1" x="178.4" y="1020.05" width="3.64" height="7.85"/>
        <polygon class="cls-9" points="182.04 1020.05 182.04 1020.42 178.4 1024.07 178.4 1022.51 180.86 1020.05 182.04 1020.05"/>
        <polygon class="cls-9" points="182.04 1024.21 182.04 1026.34 180.49 1027.89 178.4 1027.89 178.4 1027.85 182.04 1024.21"/>
      </g>
      <g>
        <rect class="cls-3" x="185.69" y="1019.49" width="4.84" height="8.99"/>
        <rect class="cls-1" x="186.29" y="1020.05" width="3.64" height="7.85"/>
        <polygon class="cls-9" points="189.93 1020.05 189.93 1020.42 186.29 1024.07 186.29 1022.51 188.75 1020.05 189.93 1020.05"/>
        <polygon class="cls-9" points="189.93 1024.21 189.93 1026.34 188.38 1027.89 186.29 1027.89 186.29 1027.85 189.93 1024.21"/>
      </g>
      <g>
        <rect class="cls-3" x="193.58" y="1019.49" width="4.84" height="8.99"/>
        <rect class="cls-1" x="194.18" y="1020.05" width="3.64" height="7.85"/>
        <polygon class="cls-9" points="197.82 1020.05 197.82 1020.42 194.18 1024.07 194.18 1022.51 196.64 1020.05 197.82 1020.05"/>
        <polygon class="cls-9" points="197.82 1024.21 197.82 1026.34 196.27 1027.89 194.18 1027.89 194.18 1027.85 197.82 1024.21"/>
      </g>
      <g>
        <rect class="cls-3" x="201.47" y="1019.49" width="4.84" height="8.99"/>
        <rect class="cls-1" x="202.07" y="1020.05" width="3.64" height="7.85"/>
        <polygon class="cls-9" points="205.71 1020.05 205.71 1020.42 202.07 1024.07 202.07 1022.51 204.53 1020.05 205.71 1020.05"/>
        <polygon class="cls-9" points="205.71 1024.21 205.71 1026.34 204.16 1027.89 202.07 1027.89 202.07 1027.85 205.71 1024.21"/>
      </g>
      <g>
        <rect class="cls-3" x="209.36" y="1019.49" width="4.84" height="8.99"/>
        <rect class="cls-1" x="209.96" y="1020.05" width="3.64" height="7.85"/>
        <polygon class="cls-9" points="213.6 1020.05 213.6 1020.42 209.96 1024.07 209.96 1022.51 212.42 1020.05 213.6 1020.05"/>
        <polygon class="cls-9" points="213.6 1024.21 213.6 1026.34 212.05 1027.89 209.96 1027.89 209.96 1027.85 213.6 1024.21"/>
      </g>
      <g>
        <rect class="cls-3" x="217.25" y="1019.49" width="4.84" height="8.99"/>
        <rect class="cls-1" x="217.85" y="1020.05" width="3.64" height="7.85"/>
        <polygon class="cls-9" points="221.49 1020.05 221.49 1020.42 217.85 1024.07 217.85 1022.51 220.31 1020.05 221.49 1020.05"/>
        <polygon class="cls-9" points="221.49 1024.21 221.49 1026.34 219.94 1027.89 217.85 1027.89 217.85 1027.85 221.49 1024.21"/>
      </g>
    </g>
    <g>
      <g>
        <rect class="cls-3" x="177.8" y="1036.03" width="4.84" height="8.99"/>
        <rect class="cls-1" x="178.4" y="1036.59" width="3.64" height="7.85"/>
        <polygon class="cls-9" points="182.04 1036.59 182.04 1036.96 178.4 1040.61 178.4 1039.05 180.86 1036.59 182.04 1036.59"/>
        <polygon class="cls-9" points="182.04 1040.75 182.04 1042.88 180.49 1044.43 178.4 1044.43 178.4 1044.39 182.04 1040.75"/>
      </g>
      <g>
        <rect class="cls-3" x="185.69" y="1036.03" width="4.84" height="8.99"/>
        <rect class="cls-1" x="186.29" y="1036.59" width="3.64" height="7.85"/>
        <polygon class="cls-9" points="189.93 1036.59 189.93 1036.96 186.29 1040.61 186.29 1039.05 188.75 1036.59 189.93 1036.59"/>
        <polygon class="cls-9" points="189.93 1040.75 189.93 1042.88 188.38 1044.43 186.29 1044.43 186.29 1044.39 189.93 1040.75"/>
      </g>
      <g>
        <rect class="cls-3" x="193.58" y="1036.03" width="4.84" height="8.99"/>
        <rect class="cls-1" x="194.18" y="1036.59" width="3.64" height="7.85"/>
        <polygon class="cls-9" points="197.82 1036.59 197.82 1036.96 194.18 1040.61 194.18 1039.05 196.64 1036.59 197.82 1036.59"/>
        <polygon class="cls-9" points="197.82 1040.75 197.82 1042.88 196.27 1044.43 194.18 1044.43 194.18 1044.39 197.82 1040.75"/>
      </g>
      <g>
        <rect class="cls-3" x="201.47" y="1036.03" width="4.84" height="8.99"/>
        <rect class="cls-1" x="202.07" y="1036.59" width="3.64" height="7.85"/>
        <polygon class="cls-9" points="205.71 1036.59 205.71 1036.96 202.07 1040.61 202.07 1039.05 204.53 1036.59 205.71 1036.59"/>
        <polygon class="cls-9" points="205.71 1040.75 205.71 1042.88 204.16 1044.43 202.07 1044.43 202.07 1044.39 205.71 1040.75"/>
      </g>
      <g>
        <rect class="cls-3" x="209.36" y="1036.03" width="4.84" height="8.99"/>
        <rect class="cls-1" x="209.96" y="1036.59" width="3.64" height="7.85"/>
        <polygon class="cls-9" points="213.6 1036.59 213.6 1036.96 209.96 1040.61 209.96 1039.05 212.42 1036.59 213.6 1036.59"/>
        <polygon class="cls-9" points="213.6 1040.75 213.6 1042.88 212.05 1044.43 209.96 1044.43 209.96 1044.39 213.6 1040.75"/>
      </g>
      <g>
        <rect class="cls-3" x="217.25" y="1036.03" width="4.84" height="8.99"/>
        <rect class="cls-1" x="217.85" y="1036.59" width="3.64" height="7.85"/>
        <polygon class="cls-9" points="221.49 1036.59 221.49 1036.96 217.85 1040.61 217.85 1039.05 220.31 1036.59 221.49 1036.59"/>
        <polygon class="cls-9" points="221.49 1040.75 221.49 1042.88 219.94 1044.43 217.85 1044.43 217.85 1044.39 221.49 1040.75"/>
      </g>
    </g>
    <g>
      <rect class="cls-3" x="192.77" y="1054.07" width="14.47" height="21.37"/>
      <g>
        <rect class="cls-1" x="193.82" y="1055.12" width="12.35" height="20.31"/>
        <polygon class="cls-9" points="203.73 1055.12 193.82 1065.03 193.82 1061.08 199.78 1055.12 203.73 1055.12"/>
        <polygon class="cls-9" points="206.18 1057.47 206.18 1059.49 193.82 1071.85 193.82 1069.82 206.18 1057.47"/>
        <polygon class="cls-9" points="206.18 1064.35 206.18 1067.89 198.63 1075.44 195.09 1075.44 206.18 1064.35"/>
      </g>
      <rect class="cls-3" x="199.47" y="1054.07" width="1.06" height="21.37"/>
    </g>
    <path class="cls-3" d="M151.55,1075.44h96.91c2.11,0,3.82,1.71,3.82,3.82v.61h-104.54v-.61c0-2.11,1.71-3.82,3.82-3.82Z"/>
  </g>
</svg>