<?xml version="1.0" encoding="UTF-8"?>
<svg id="Laag_1" data-name="Laag 1" xmlns="http://www.w3.org/2000/svg" viewBox="0 0 595.28 595.28">
  <defs>
    <style>
      .cls-1 {
        fill: #109c39;
        stroke-width: 0px;
      }

      .cls-2 {
        fill: none;
        stroke: #fff;
        stroke-miterlimit: 10;
        stroke-width: 9px;
      }
    </style>
  </defs>
  <rect class="cls-1" width="595.28" height="595.28"/>
  <path class="cls-2" d="M174.44,125.34h247.96c1.56,0,2.83,1.27,2.83,2.83v207.05c0,73.53-59.7,133.23-133.23,133.23h-117.57c-1.56,0-2.83-1.27-2.83-2.83V128.18c0-1.56,1.27-2.83,2.83-2.83Z"/>
  <circle class="cls-2" cx="203.9" cy="155.27" r="4.44"/>
  <circle class="cls-2" cx="394.72" cy="155.27" r="4.44"/>
  <path class="cls-2" d="M311.46,382.53h-96.13c-1.57,0-2.83-1.27-2.83-2.83v-175.66c0-1.57,1.27-2.83,2.83-2.83h164.4c1.57,0,2.83,1.27,2.83,2.83v147.68"/>
  <path class="cls-2" d="M237.39,345.19l34.77-34.77c1.09-1.09,2.86-1.11,3.97-.03l33.55,32.43"/>
  <path class="cls-2" d="M355.9,332.16l-28.24-26.58c-1.11-1.04-2.84-1.02-3.93.04l-34.2,33.64"/>
  <circle class="cls-2" cx="263.76" cy="251.86" r="22.81"/>
  <path class="cls-2" d="M322.72,468.45s18.31-52.7,15.74-82.96c-.14-1.61,1.07-3.02,2.68-3.09,13.47-.63,68-3.72,79.66-12.99"/>
</svg>